<svg width="25" height="25" viewBox="0 0 25 25" fill="none" xmlns="http://www.w3.org/2000/svg">
<rect x="0.5" y="0.666748" width="24" height="24" rx="12" fill="#F9F9F9"/>
<path d="M13.0549 19.2009C15.1389 18.7832 17.8333 17.284 17.8333 13.4075C17.8333 9.87973 15.2511 7.53062 13.3944 6.45123C12.9823 6.21172 12.5 6.52671 12.5 7.00328V8.22227C12.5 9.1835 12.0959 10.9381 10.9729 11.6679C10.3995 12.0405 9.78035 11.4828 9.71067 10.8026L9.65345 10.244C9.58693 9.59469 8.92561 9.2005 8.40664 9.5964C7.47431 10.3076 6.5 11.5531 6.5 13.4075C6.5 18.1482 10.0259 19.3334 11.7889 19.3334C11.8914 19.3334 11.9992 19.3303 12.1114 19.3239C11.2409 19.2494 9.83333 18.7094 9.83333 16.9628C9.83333 15.5966 10.83 14.6723 11.5873 14.2231C11.791 14.1022 12.0294 14.2591 12.0294 14.4959V14.8887C12.0294 15.1894 12.1457 15.6593 12.4224 15.9809C12.7356 16.3449 13.1953 15.9636 13.2323 15.4849C13.244 15.3338 13.3959 15.2376 13.5267 15.314C13.9543 15.5639 14.5 16.0977 14.5 16.9628C14.5 18.3282 13.7474 18.9562 13.0549 19.2009Z" fill="#FF516E"/>
</svg>
