<svg width="24" height="24" viewBox="0 0 24 24" fill="none" xmlns="http://www.w3.org/2000/svg">
<rect width="24" height="24" rx="12" fill="#F9F9F9"/>
<path d="M18.5467 14.2791L16.88 17.1657C16.5533 17.7391 15.9467 18.0391 15.3333 17.9991H14V19.3324L12.3333 16.3324L14 13.3324V14.6657H15.88L14.4 12.0991L17.2867 10.4324L18.4867 12.5124C18.8333 13.0257 18.88 13.7124 18.5467 14.2791ZM10.14 6.03906H13.4733C14.1267 6.03906 14.6933 6.41906 14.9667 6.96573L15.6333 8.12573L16.7867 7.45906L15.0267 10.3991L11.5933 10.4591L12.7467 9.7924L11.8067 8.15906L10.3333 10.7257L7.44001 9.05906L8.64001 6.97906C8.91335 6.42573 9.48001 6.03906 10.14 6.03906ZM7.36668 17.1724L5.70001 14.2857C5.37335 13.7191 5.42001 13.0391 5.76001 12.5257L6.42668 11.3724L5.27335 10.7057L8.70001 10.7591L10.4667 13.7057L9.31335 13.0391L8.37335 14.6657H11.3333V17.9991H8.93335C8.62102 18.0217 8.30861 17.9562 8.03165 17.81C7.7547 17.6639 7.52431 17.443 7.36668 17.1724Z" fill="#65C466"/>
</svg>

