<svg width="25" height="24" viewBox="0 0 25 24" fill="none" xmlns="http://www.w3.org/2000/svg">
<rect x="0.5" width="24" height="24" rx="12" fill="#F9F9F9"/>
<g clip-path="url(#clip0_45508_36637)">
<path fill-rule="evenodd" clip-rule="evenodd" d="M15.3495 7.51571C15.7681 7.76185 16.1451 8.07253 16.4667 8.43628C16.7838 8.79334 17.0383 9.20144 17.2193 9.64332C17.3209 9.89359 17.4014 10.1519 17.4602 10.4155C17.5933 11.0148 17.6039 11.6348 17.4915 12.2384C17.4295 12.5638 17.3353 12.8822 17.2102 13.1889L17.1959 13.2214C16.9355 13.8725 16.4693 14.5027 16.024 15.1251C15.7975 15.4402 15.5722 15.7514 15.3834 16.0535C15.324 16.1474 15.2401 16.2235 15.1408 16.2735C15.0415 16.3235 14.9305 16.3456 14.8196 16.3373L11.2363 16.8699C11.0885 16.8914 10.9379 16.8581 10.813 16.7763C10.688 16.6945 10.5973 16.5699 10.5579 16.4259C10.4688 16.1656 10.3586 15.913 10.2284 15.6707C10.1204 15.4623 9.98934 15.2666 9.83782 15.0873C9.65293 14.8764 9.46412 14.6602 9.27662 14.4168C9.06746 14.1351 8.88688 13.8332 8.73756 13.5157C8.58054 13.182 8.45836 12.8329 8.37298 12.474C8.28823 12.1148 8.24671 11.7468 8.24928 11.3777C8.25305 10.994 8.30422 10.6122 8.40162 10.241C8.50565 9.84258 8.65461 9.45729 8.84564 9.09253L8.87168 9.04566C9.1179 8.62264 9.43047 8.24193 9.79746 7.91806C10.1619 7.5995 10.5769 7.34384 11.0253 7.16155L11.0631 7.14722C11.3982 7.01405 11.7478 6.92096 12.1048 6.86988C12.4822 6.81689 12.8646 6.80815 13.2441 6.84384C13.6145 6.87753 13.98 6.95221 14.3339 7.06649C14.6883 7.17743 15.029 7.32813 15.3495 7.51571ZM14.8443 18.8894C14.648 19.2279 14.3671 19.5097 14.0292 19.7071C13.7435 19.8735 13.423 19.9712 13.093 19.9923C12.7615 20.0134 12.4301 19.9488 12.1308 19.8048C11.9164 19.6992 11.7232 19.5553 11.5605 19.3803L14.8443 18.8894ZM15.1568 17.0522V17.267V17.3412C15.1666 17.4821 15.1666 17.6235 15.1568 17.7644L15.0917 18.0743L11.1126 18.6655L11.0436 18.5066L10.8886 17.8712V17.6863L15.1464 17.0522H15.1568ZM12.8131 4.48576C12.8168 4.35406 12.8724 4.22916 12.9678 4.13822C13.0631 4.04727 13.1905 3.99763 13.3222 4.00009H13.3561C13.4785 4.01099 13.5928 4.06607 13.6777 4.15503C13.7673 4.2495 13.8168 4.37507 13.8157 4.5053C13.8164 4.51396 13.8164 4.52267 13.8157 4.53134L13.7883 5.59774C13.789 5.60902 13.789 5.62032 13.7883 5.6316C13.7787 5.75765 13.7214 5.87528 13.628 5.96046C13.5345 6.04565 13.4121 6.09195 13.2857 6.08993H13.2506C13.1286 6.08085 13.0143 6.02652 12.9303 5.93759C12.8401 5.84295 12.7905 5.71675 12.7922 5.58602C12.7916 5.57736 12.7916 5.56865 12.7922 5.55998L12.8183 4.48967L12.8131 4.48576ZM7.3235 6.35686C7.22729 6.26608 7.1703 6.14135 7.16465 6.0092C7.16168 5.94338 7.17179 5.87762 7.19438 5.81573C7.21698 5.75384 7.25161 5.69704 7.29629 5.64861C7.34096 5.60018 7.39479 5.56108 7.45467 5.53358C7.51454 5.50608 7.57927 5.49071 7.64511 5.48837C7.77698 5.48281 7.90569 5.52962 8.00319 5.61858L8.80267 6.36467C8.89942 6.45489 8.9566 6.57971 8.96172 6.7119C8.96684 6.8441 8.9195 6.97296 8.83001 7.0704C8.73884 7.1668 8.61363 7.2238 8.48105 7.22925C8.34959 7.23475 8.2213 7.18793 8.12428 7.09905L7.3235 6.35686ZM6.02142 11.8543C5.9554 11.8567 5.88956 11.8461 5.82764 11.8231C5.76573 11.8 5.70896 11.765 5.66059 11.72C5.61222 11.675 5.57319 11.621 5.54573 11.5609C5.51828 11.5008 5.50293 11.4359 5.50058 11.3699C5.4974 11.3045 5.50728 11.2392 5.52963 11.1777C5.55199 11.1162 5.58638 11.0598 5.63079 11.0118C5.67573 10.964 5.72971 10.9255 5.78961 10.8987C5.84951 10.8719 5.91414 10.8572 5.97975 10.8556L7.0709 10.8191C7.13693 10.8161 7.20289 10.8263 7.26495 10.8491C7.32701 10.8718 7.38393 10.9067 7.43239 10.9517C7.48085 10.9966 7.5199 11.0507 7.54725 11.1109C7.57461 11.1711 7.58972 11.2361 7.59173 11.3022V11.31V11.3282C7.59037 11.4511 7.54405 11.5692 7.46152 11.6602C7.41564 11.708 7.36067 11.7461 7.29984 11.7722C7.23902 11.7984 7.17357 11.8121 7.10735 11.8126H7.08782L6.0097 11.849L6.02142 11.8543ZM19.7714 10.3061H19.7883C19.9132 10.2985 20.0363 10.338 20.1334 10.4168C20.2358 10.5011 20.3012 10.6221 20.3157 10.754C20.3157 10.754 20.3157 10.767 20.3157 10.7696C20.3217 10.8972 20.2786 11.0223 20.1953 11.1191C20.112 11.216 19.9948 11.2773 19.8678 11.2905L18.7818 11.422C18.6501 11.4354 18.5184 11.3961 18.4157 11.3126C18.3129 11.2292 18.2475 11.1083 18.2337 10.9766C18.2202 10.8447 18.2597 10.7129 18.3434 10.6101C18.4272 10.5073 18.5484 10.4419 18.6803 10.4285C19.0423 10.3894 19.4068 10.3477 19.7701 10.3126L19.7714 10.3061ZM17.6204 5.95972C17.6566 5.90511 17.7033 5.85821 17.7577 5.82174C17.8122 5.78527 17.8733 5.75995 17.9376 5.74724C18.0019 5.73453 18.068 5.73468 18.1323 5.74768C18.1965 5.76069 18.2575 5.78629 18.3118 5.823C18.3661 5.85939 18.4126 5.90622 18.4486 5.96077C18.4845 6.01532 18.5093 6.07649 18.5214 6.14071C18.5468 6.27061 18.5201 6.40526 18.4472 6.51571L17.8391 7.42717C17.7645 7.53699 17.6494 7.61267 17.519 7.63758C17.3886 7.66249 17.2536 7.63457 17.1438 7.55998C17.034 7.48539 16.9583 7.37023 16.9334 7.23983C16.9085 7.10944 16.9364 6.97449 17.011 6.86467L17.6204 5.95321V5.95972ZM13.4771 11.1498H14.2441C14.2704 11.1498 14.2965 11.155 14.3208 11.1651C14.3451 11.1752 14.3672 11.1899 14.3859 11.2086C14.4045 11.2272 14.4193 11.2493 14.4293 11.2736C14.4394 11.2979 14.4446 11.324 14.4446 11.3503C14.4445 11.3902 14.4328 11.4291 14.4107 11.4623L12.5878 14.5782C12.5743 14.6008 12.5565 14.6205 12.5353 14.6361C12.5141 14.6517 12.4901 14.663 12.4646 14.6693C12.439 14.6756 12.4125 14.6768 12.3865 14.6728C12.3605 14.6688 12.3355 14.6596 12.3131 14.6459C12.2775 14.6245 12.2494 14.5926 12.2327 14.5546C12.2159 14.5166 12.2112 14.4744 12.2193 14.4337L12.4889 12.5222L11.5774 12.5378C11.5511 12.5384 11.525 12.5337 11.5006 12.5241C11.4761 12.5144 11.4538 12.5001 11.4349 12.4818C11.416 12.4635 11.401 12.4417 11.3906 12.4176C11.3802 12.3935 11.3746 12.3675 11.3743 12.3412C11.3731 12.3042 11.3826 12.2676 11.4016 12.2358L13.1972 9.12118C13.2245 9.07569 13.2687 9.0428 13.3201 9.02964C13.3716 9.01648 13.4261 9.0241 13.4719 9.05087C13.5072 9.07005 13.5358 9.0995 13.5539 9.13531C13.5721 9.17113 13.5789 9.21161 13.5735 9.25139L13.4824 11.1498H13.4771Z" fill="#FF516E"/>
</g>
<defs>
<clipPath id="clip0_45508_36637">
<rect width="16" height="16" fill="white" transform="translate(4.5 4)"/>
</clipPath>
</defs>
</svg>
