<svg width="25" height="24" viewBox="0 0 25 24" fill="none" xmlns="http://www.w3.org/2000/svg">
<rect x="0.5" width="24" height="24" rx="12" fill="#F9F9F9"/>
<path d="M18.1716 7.80741L16.2219 5.34501C16.135 5.23558 15.9502 5.23558 15.8634 5.34501L13.9173 7.80399C12.7943 9.01384 12.7952 10.9627 13.9237 12.1529C14.5078 12.7338 15.2752 13.0242 16.0425 13.0242C16.8098 13.0242 17.5774 12.7336 18.1616 12.1529C18.1652 12.1494 18.1686 12.1458 18.1719 12.1421C19.2885 10.8779 19.2876 8.93663 18.1716 7.80741ZM16.0425 12.1118C15.4908 12.1118 14.9711 11.9 14.5787 11.5155C13.7846 10.666 13.7914 9.28296 14.5871 8.42538L14.6118 8.39911C14.6979 8.30705 14.8425 8.30179 14.9346 8.38769C15.0269 8.47358 15.0319 8.61819 14.946 8.71048L14.9215 8.73675C14.286 9.42185 14.2785 10.5255 14.9053 11.1964C15.2048 11.4895 15.6112 11.6549 16.0425 11.6549C16.1686 11.6549 16.271 11.757 16.271 11.8834C16.271 12.0097 16.1686 12.1118 16.0425 12.1118Z" fill="#65C466"/>
<path d="M12.4973 12.0051L9.81787 8.99034C9.77401 8.941 9.7162 8.91723 9.6447 8.91357C9.57845 8.91426 9.51587 8.94372 9.47315 8.99421L6.91869 12.0042C6.17373 12.7491 5.76367 13.7394 5.76367 14.7928C5.76367 15.8464 6.17373 16.8369 6.91869 17.5814C7.66365 18.3264 8.65395 18.7366 9.7073 18.7366C10.7586 18.7366 11.7471 18.3282 12.4913 17.5862C13.3108 16.8531 13.7649 15.8731 13.7704 14.8262C13.7759 13.7632 13.3238 12.7622 12.4973 12.0051ZM9.7073 17.8229C8.89793 17.8229 8.13699 17.5076 7.56496 16.9354C6.9934 16.364 6.67861 15.6031 6.67861 14.7928C6.67861 13.9827 6.9934 13.2218 7.56496 12.6502L7.59123 12.6239C7.68031 12.5349 7.82494 12.5349 7.91426 12.6239C8.00358 12.7133 8.00358 12.8579 7.91426 12.947L7.88799 12.9732C7.40277 13.4587 7.1355 14.105 7.1355 14.7928C7.1355 15.4811 7.40277 16.1271 7.88799 16.6124C8.37389 17.0983 9.02015 17.366 9.7073 17.366C9.8334 17.366 9.93575 17.4681 9.93575 17.5944C9.93575 17.7208 9.8334 17.8229 9.7073 17.8229Z" fill="#65C466"/>
</svg>
